<?xml version="1.0" standalone="no"?>
<!DOCTYPE svg PUBLIC "-//W3C//DTD SVG 20010904//EN"
 "http://www.w3.org/TR/2001/REC-SVG-20010904/DTD/svg10.dtd">
<svg version="1.0" xmlns="http://www.w3.org/2000/svg"
 width="170.000000pt" height="170.000000pt" viewBox="0 0 170.000000 170.000000"
 preserveAspectRatio="xMidYMid meet">
<metadata>
Created by potrace 1.11, written by Peter Selinger 2001-2013
</metadata>
<g transform="translate(0.000000,170.000000) scale(0.100000,-0.100000)"
fill="#000000" stroke="none">
<path d="M694 1688 c-3 -4 -9 -6 -14 -3 -14 9 -158 -42 -239 -86 -75 -40 -92
-52 -168 -119 -47 -41 -133 -143 -133 -157 0 -7 -4 -13 -8 -13 -6 0 -64 -102
-68 -120 0 -3 -4 -13 -7 -22 -10 -25 -15 -42 -14 -48 0 -3 -5 -14 -11 -25 -20
-38 -27 -110 -25 -255 2 -166 4 -190 14 -190 5 0 6 -9 4 -20 -2 -11 1 -20 7
-20 6 0 9 -3 6 -6 -11 -10 50 -144 99 -217 56 -84 147 -179 220 -230 29 -21
56 -37 59 -37 3 0 18 -9 32 -19 15 -10 30 -19 35 -20 4 0 23 -8 43 -16 51 -21
134 -45 134 -38 0 3 7 0 15 -7 8 -7 15 -10 15 -6 0 3 12 1 26 -4 18 -7 23 -7
18 1 -4 7 1 7 16 -1 21 -11 194 -13 215 -1 5 3 16 6 25 7 8 1 29 5 45 9 17 4
38 7 48 8 9 1 17 5 17 9 0 4 3 7 8 6 13 -4 112 36 112 46 0 5 3 6 7 3 3 -4 11
-3 17 2 6 5 27 18 48 29 20 11 47 29 59 39 41 31 169 158 169 166 0 4 9 18 21
30 23 25 64 98 61 110 -1 4 3 7 8 7 6 0 10 9 10 20 0 11 5 20 12 20 6 0 8 3 5
7 -4 3 -3 11 2 17 8 10 29 80 47 161 9 43 15 265 6 265 -4 0 -8 12 -9 28 -1
15 -6 45 -12 67 -7 22 -13 47 -15 55 -3 8 -12 33 -22 55 -10 22 -18 42 -19 45
-5 20 -30 60 -37 60 -4 0 -8 9 -8 20 0 10 -6 23 -14 27 -7 4 -19 19 -26 32
-29 56 -270 264 -270 234 0 -4 -4 -3 -8 3 -12 18 -147 75 -156 66 -3 -3 -6 0
-6 5 0 6 -8 10 -17 8 -10 -1 -30 4 -44 11 -20 10 -29 10 -38 1 -8 -8 -11 -8
-11 0 0 13 -278 15 -286 1z"/>
</g>
</svg>
